<?xml version="1.0" encoding="iso-8859-1"?>
<!-- Generator: Adobe Illustrator 19.0.0, SVG Export Plug-In . SVG Version: 6.00 Build 0)  -->
<svg version="1.1" id="Capa_1" xmlns="http://www.w3.org/2000/svg" xmlns:xlink="http://www.w3.org/1999/xlink" x="0px" y="0px"
	 viewBox="0 0 512 512" style="enable-background:new 0 0 512 512;" xml:space="preserve">
<polygon style="fill:#174461;" points="467,50.4 487.571,36 467,0 446.429,36 "/>
<polygon style="fill:#FFF5D9;" points="467,95.625 512,78.75 487.571,36 446.429,36 422,78.751 "/>
<polygon style="fill:#45A2E0;" points="512,78.75 467,78.75 440,108.75 440,431 512,401 "/>
<polygon style="fill:#4EB9FF;" points="422,78.751 422,401 467,431 467,78.75 "/>
<rect x="422" y="401" style="fill:#174461;" width="90" height="111"/>
<g>
	<polygon style="fill:#FFCE47;" points="286.5,197.461 331.75,152.024 392,212.524 392,0 196,0 151,98.73 196,197.461 
		241.25,152.023 	"/>
	<polygon style="fill:#FFCE47;" points="272,512 302,422 392,392 392,254.89 331.734,194.555 286.5,239.977 241.25,194.539 
		196,239.977 136,375.988 196,512 	"/>
</g>
<g>
	<polygon style="fill:#FFD86C;" points="0,0 0,212.524 60.25,152.024 105.5,197.461 150.75,152.023 196,197.461 196,0 	"/>
	<polygon style="fill:#FFD86C;" points="105.5,239.977 60.266,194.555 0,254.892 0,512 196,512 196,239.977 150.75,194.539 	"/>
</g>
<polygon style="fill:#FFE290;" points="272,392 272,512 392,392 "/>
<g>
</g>
<g>
</g>
<g>
</g>
<g>
</g>
<g>
</g>
<g>
</g>
<g>
</g>
<g>
</g>
<g>
</g>
<g>
</g>
<g>
</g>
<g>
</g>
<g>
</g>
<g>
</g>
<g>
</g>
</svg>
