<?xml version="1.0" encoding="iso-8859-1"?>
<!-- Generator: Adobe Illustrator 19.0.0, SVG Export Plug-In . SVG Version: 6.00 Build 0)  -->
<svg version="1.1" id="Capa_1" xmlns="http://www.w3.org/2000/svg" xmlns:xlink="http://www.w3.org/1999/xlink" x="0px" y="0px"
	 viewBox="0 0 512.002 512.002" style="enable-background:new 0 0 512.002 512.002;" xml:space="preserve">
<path style="fill:#FFEFD5;" d="M10,216.197v250.078c0,19.731,15.995,35.726,35.725,35.726h367.973
	c19.731,0,35.725-15.995,35.725-35.725V216.197L251.775,69.969c-13.11-9.699-31.017-9.699-44.127,0L10,216.197z"/>
<rect x="64" y="136.001" style="fill:#FFFFFF;" width="326" height="317.69"/>
<polygon style="fill:#FF5D5D;" points="311.46,229.164 327.03,219.805 357.371,232.379 361.761,250.001 402.239,250.001 
	406.629,232.379 436.97,219.805 452.54,229.164 481.163,200.541 471.804,184.971 484.378,154.63 502,150.24 502,109.762 
	484.378,105.372 471.804,75.031 481.163,59.461 452.54,30.838 436.97,40.197 406.629,27.623 402.239,10.001 361.761,10.001 
	357.371,27.623 327.03,40.197 311.46,30.838 282.837,59.461 292.196,75.031 279.622,105.372 262,109.762 262,150.24 279.622,154.63 
	292.196,184.971 282.837,200.541 "/>
<circle style="fill:#FFFFFF;" cx="382" cy="130.001" r="60"/>
<path style="fill:#FFB954;" d="M294.44,371.181H164.984L10,216.197v250.078c0,19.731,15.995,35.726,35.725,35.726h367.973
	c19.731,0,35.725-15.995,35.725-35.725V216.197L294.44,371.181z"/>
<path style="fill:#FEA02C;" d="M275.237,351.978c-25.143-25.143-65.908-25.143-91.051,0L35.622,500.543
	c3.205,0.944,6.593,1.458,10.104,1.458h367.973c3.51,0,6.899-0.515,10.104-1.458L275.237,351.978z"/>
<path d="M256,443.69c-2.63,0-5.21,1.07-7.07,2.931c-1.86,1.859-2.93,4.439-2.93,7.069s1.07,5.21,2.93,7.07
	c1.86,1.87,4.44,2.93,7.07,2.93s5.21-1.06,7.07-2.93c1.86-1.86,2.93-4.43,2.93-7.07c0-2.63-1.07-5.21-2.93-7.069
	C261.21,444.761,258.63,443.69,256,443.69z"/>
<path d="M369.855,281.866l-0.333,0.334c-3.902,3.907-3.898,10.239,0.01,14.142c1.953,1.949,4.509,2.924,7.066,2.924
	c2.562,0,5.124-0.979,7.076-2.935l0.333-0.334c3.902-3.907,3.898-10.239-0.01-14.142
	C380.088,277.953,373.757,277.958,369.855,281.866z"/>
<path d="M438.869,108.373c-5.416,1.083-8.928,6.352-7.844,11.767c3.292,16.462-1.817,33.365-13.669,45.217
	c-9.444,9.443-22.001,14.644-35.356,14.644s-25.912-5.201-35.355-14.645c-9.444-9.443-14.645-22-14.645-35.355
	s5.201-25.912,14.645-35.355c12.454-12.455,30.119-17.393,47.256-13.217c5.364,1.313,10.776-1.981,12.084-7.347
	c1.308-5.365-1.981-10.776-7.347-12.084c-23.978-5.849-48.703,1.071-66.136,18.505C319.281,93.725,312,111.303,312,130.001
	s7.281,36.276,20.502,49.497c13.222,13.222,30.8,20.503,49.498,20.503s36.276-7.281,49.497-20.502
	c16.591-16.591,23.746-40.248,19.139-63.282C449.553,110.801,444.29,107.289,438.869,108.373z"/>
<path d="M424.469,97.617c2.559,0,5.119-0.976,7.071-2.929c3.905-3.905,3.905-10.237,0-14.143l-0.043-0.043
	c-3.906-3.905-10.215-3.883-14.121,0.021c-3.905,3.905-3.883,10.259,0.021,14.164C419.351,96.641,421.91,97.617,424.469,97.617z"/>
<path d="M504.417,100.058l-12.731-3.171l-8.714-21.026l6.761-11.248c2.366-3.936,1.747-8.976-1.5-12.223L459.61,23.767
	c-3.247-3.246-8.287-3.864-12.223-1.5l-11.248,6.761l-21.026-8.714l-3.171-12.731c-1.109-4.455-5.111-7.582-9.703-7.582H361.76
	c-4.592,0-8.593,3.127-9.704,7.583l-3.171,12.731l-21.026,8.714l-11.248-6.761c-3.937-2.366-8.976-1.748-12.223,1.5l-28.623,28.623
	c-3.247,3.247-3.865,8.288-1.5,12.223l6.761,11.248l-0.744,1.796l-20.486-15.156c-17.787-13.159-41.688-13.158-59.476,0
	l-85.831,63.499H64c-5.523,0-10,4.477-10,10v34.752L4.052,207.707C1.503,209.592,0,212.575,0,215.746v250.473
	c0,25.244,20.538,45.782,45.782,45.782h368.554c25.244,0,45.782-20.538,45.782-45.782v-230.49l28.117-28.117
	c3.247-3.247,3.865-8.288,1.5-12.223l-6.761-11.248l8.714-21.026l12.731-3.171c4.456-1.11,7.583-5.112,7.583-9.704v-40.479
	C512,105.17,508.873,101.168,504.417,100.058z M212.216,78.578c10.673-7.896,25.014-7.895,35.685,0l24.491,18.119l-0.079,0.19
	l-12.731,3.171c-4.456,1.11-7.583,5.112-7.583,9.704v16.239H148.117L212.216,78.578z M54,245.603l-28.721-28.722L54,195.632V245.603
	z M20,466.219V239.888l131.086,131.086L33.392,488.668c-0.032,0.032-0.059,0.068-0.091,0.101C25.377,484.365,20,475.91,20,466.219z
	 M401.773,492.001H58.344l28.306-28.306H219c5.523,0,10-4.478,10-10s-4.477-10-10-10H106.65l22.938-22.938h65.738
	c5.523,0,10-4.478,10-10s-4.477-10-10-10h-45.738l41.944-41.944c10.291-10.291,23.973-15.958,38.526-15.958
	c14.554,0,28.236,5.667,38.526,15.958L401.773,492.001z M426.817,488.769c-0.032-0.033-0.059-0.068-0.091-0.101L309.031,370.974
	l48.471-48.471c3.905-3.905,3.905-10.237,0-14.143c-3.905-3.904-10.237-3.904-14.143,0l-48.471,48.471l-12.161-12.161
	c-14.068-14.068-32.773-21.815-52.669-21.815s-38.6,7.747-52.668,21.815l-12.161,12.161L74,265.603V146.001h178v4.239
	c0,4.592,3.127,8.593,7.583,9.704l12.731,3.171l8.714,21.026l-6.761,11.248c-2.366,3.936-1.747,8.976,1.5,12.223l28.623,28.623
	c3.248,3.247,8.288,3.866,12.223,1.5l11.248-6.761l21.026,8.714l3.171,12.731c1.11,4.456,5.112,7.583,9.704,7.583h40.479
	c4.592,0,8.593-3.127,9.704-7.583l3.171-12.731l21.026-8.714l3.978,2.391v232.854C440.118,475.91,434.741,484.365,426.817,488.769z
	 M492,142.426l-10.04,2.501c-3.076,0.767-5.607,2.946-6.821,5.875l-12.574,30.341c-1.214,2.93-0.966,6.262,0.667,8.98l5.333,8.873
	l-17.572,17.572l-8.873-5.333c-2.719-1.633-6.05-1.882-8.98-0.667l-30.341,12.574c-2.929,1.214-5.108,3.745-5.875,6.821
	l-2.499,10.038h-24.85l-2.501-10.04c-0.767-3.076-2.946-5.607-5.875-6.821l-30.341-12.574c-2.93-1.214-6.262-0.966-8.98,0.667
	l-8.873,5.333l-17.572-17.572l5.333-8.873c1.634-2.718,1.881-6.05,0.667-8.98L288.859,150.8c-1.214-2.929-3.745-5.108-6.821-5.875
	L272,142.426v-24.85l10.04-2.501c3.076-0.767,5.607-2.946,6.821-5.875l12.574-30.341c1.214-2.93,0.966-6.262-0.667-8.98
	l-5.333-8.872l17.572-17.572l8.873,5.333c2.719,1.633,6.05,1.882,8.98,0.667l30.341-12.574c2.929-1.214,5.108-3.745,5.875-6.821
	l2.499-10.039h24.85l2.501,10.04c0.767,3.076,2.946,5.607,5.875,6.821l30.341,12.574c2.931,1.214,6.262,0.966,8.98-0.667
	l8.873-5.333l17.572,17.572l-5.333,8.872c-1.634,2.718-1.881,6.05-0.667,8.98l12.574,30.341c1.214,2.929,3.745,5.108,6.821,5.875
	l10.04,2.501v24.849H492z"/>
<g>
</g>
<g>
</g>
<g>
</g>
<g>
</g>
<g>
</g>
<g>
</g>
<g>
</g>
<g>
</g>
<g>
</g>
<g>
</g>
<g>
</g>
<g>
</g>
<g>
</g>
<g>
</g>
<g>
</g>
</svg>
