<?xml version="1.0" encoding="iso-8859-1"?>
<!-- Generator: Adobe Illustrator 19.0.0, SVG Export Plug-In . SVG Version: 6.00 Build 0)  -->
<svg version="1.1" id="Layer_1" xmlns="http://www.w3.org/2000/svg" xmlns:xlink="http://www.w3.org/1999/xlink" x="0px" y="0px"
	 viewBox="0 0 511.999 511.999" style="enable-background:new 0 0 511.999 511.999;" xml:space="preserve">
<path style="fill:#EA533B;" d="M385.407,255.729c13.675-22.525,17.341-44.691,7.761-61.284
	c-17.904-31.011-75.787-31.709-133.655-3.286c13.585-31.627,15.017-58.294,1.051-72.26c-27.422-27.422-103.793,4.489-170.579,71.276
	C40.436,239.723,10.094,294.54,8.923,330.738c-0.589,3.55-0.906,7.141-0.906,10.772c0,66.117,99.54,119.716,222.329,119.716
	s222.329-53.598,222.329-119.716C452.675,307.871,426.896,277.477,385.407,255.729z"/>
<path style="fill:#D93C1C;" d="M255.999,444.124c-122.789,0-222.329-53.599-222.329-119.716c0-3.632,0.317-7.224,0.906-10.773
	c1.17-36.197,31.514-91.015,81.062-140.562c14.744-14.744,29.956-27.786,45.005-38.867c-23.072,13.76-47.443,32.755-70.658,55.969
	C40.436,239.723,10.094,294.54,8.923,330.738c-0.589,3.55-0.906,7.141-0.906,10.772c0,66.117,99.54,119.716,222.329,119.716
	c77.254,0,145.295-21.221,185.143-53.423C375.088,430.202,318.567,444.124,255.999,444.124z"/>
<ellipse transform="matrix(-0.0865 -0.9963 0.9963 -0.0865 -109.8712 557.5939)" style="fill:#FFFFFF;" cx="200.702" cy="329.169" rx="98.333" ry="149.637"/>
<path style="fill:#E5E5E5;" d="M225.716,410.046c-82.337,7.153-152.894-30.911-157.594-85.019
	c-1.615-18.595,4.759-36.666,17.163-52.666c-22.942,19.576-35.86,44.173-33.637,69.769c4.7,54.107,75.257,92.171,157.594,85.019
	c54.039-4.695,99.72-27.699,123.409-58.254C307.096,390.701,269.103,406.277,225.716,410.046z"/>
<ellipse transform="matrix(-0.2337 -0.9723 0.9723 -0.2337 -82.9319 607.0742)" style="fill:#333333;" cx="197.758" cy="336.217" rx="64.133" ry="77.994"/>
<circle style="fill:#FFFFFF;" cx="174.764" cy="354.337" r="21.378"/>
<path style="fill:#FFA929;" d="M367.164,123.457c-7.084,0-12.827,5.743-12.827,12.827c0,7.084,5.743,12.827,12.827,12.827
	c25.933,0,47.031,21.098,47.031,47.031c0,7.084,5.743,12.827,12.827,12.827s12.827-5.743,12.827-12.827
	C439.849,156.063,407.242,123.457,367.164,123.457z"/>
<path id="SVGCleanerId_0" style="fill:#FFA929;" d="M358.614,50.772c-3.213,0-6.468,0.107-9.673,0.317
	c-9.424,0.62-16.562,8.763-15.944,18.188c0.62,9.424,8.77,16.558,18.188,15.944c2.462-0.161,4.962-0.245,7.429-0.245
	c61.297,0,111.165,49.868,111.165,111.165c0,7.495-0.748,14.982-2.224,22.251c-1.879,9.256,4.102,18.282,13.359,20.163
	c1.147,0.233,2.293,0.344,3.419,0.344c7.965,0,15.097-5.595,16.743-13.703c1.929-9.505,2.907-19.28,2.907-29.056
	C503.983,115.985,438.77,50.772,358.614,50.772z"/>
<g>
	<path id="SVGCleanerId_0_1_" style="fill:#FFA929;" d="M358.614,50.772c-3.213,0-6.468,0.107-9.673,0.317
		c-9.424,0.62-16.562,8.763-15.944,18.188c0.62,9.424,8.77,16.558,18.188,15.944c2.462-0.161,4.962-0.245,7.429-0.245
		c61.297,0,111.165,49.868,111.165,111.165c0,7.495-0.748,14.982-2.224,22.251c-1.879,9.256,4.102,18.282,13.359,20.163
		c1.147,0.233,2.293,0.344,3.419,0.344c7.965,0,15.097-5.595,16.743-13.703c1.929-9.505,2.907-19.28,2.907-29.056
		C503.983,115.985,438.77,50.772,358.614,50.772z"/>
</g>
<circle style="fill:#FFFFFF;" cx="230.346" cy="324.408" r="17.102"/>
<path d="M396.371,252.593c12.142-23.378,13.516-45.224,3.74-62.156c-10.068-17.438-30.886-27.36-58.617-27.937
	c-20.729-0.429-44.327,4.374-67.946,13.691c8.366-27.738,5.92-49.726-7.315-62.959c-15.715-15.714-43.87-16.218-79.287-1.419
	c-33.159,13.855-69.607,39.672-102.629,72.694c-3.131,3.132-3.131,8.207,0,11.338c3.131,3.13,8.207,3.13,11.337,0
	c31.579-31.58,66.196-56.17,97.473-69.239c28.6-11.949,51.115-12.691,61.768-2.036c10.89,10.889,9.887,34.007-2.747,63.427
	c-2.873,6.689,4.364,13.571,10.901,10.359c53.788-26.419,107.893-26.375,123.178,0.098c7.725,13.381,5.001,32.244-7.671,53.114
	c-2.367,3.9-0.903,9.148,3.131,11.261c40.609,21.286,62.974,49.23,62.974,78.681c0,28.889-21.629,56.446-60.903,77.594
	c-40.844,21.992-95.327,34.105-153.409,34.105s-112.565-12.113-153.409-34.105c-39.274-21.148-60.903-48.704-60.903-77.594
	c0-3.083,0.268-6.266,0.798-9.464c0.058-0.347,0.092-0.698,0.104-1.051c0.93-28.77,22.786-71.576,57.037-111.713
	c2.874-3.367,2.473-8.428-0.894-11.301c-3.367-2.873-8.428-2.472-11.302,0.895C24.921,252.064,2.214,297.266,0.93,329.95
	C0.312,333.836,0,337.724,0,341.511c0,35.065,24.624,67.634,69.335,91.71c43.14,23.23,100.322,36.023,161.011,36.023
	s117.871-12.794,161.011-36.023c44.712-24.075,69.335-56.645,69.335-91.71C460.692,307.719,437.93,276.363,396.371,252.593z"/>
<path d="M43.662,342.824c2.514,28.947,21.644,54.461,53.864,71.843c25.925,13.985,57.948,21.365,91.826,21.364
	c6.797,0,13.672-0.296,20.584-0.898c41.363-3.593,79.433-17.637,107.197-39.545c28.74-22.678,43.182-51.108,40.668-80.056
	s-21.644-54.461-53.864-71.843c-31.127-16.791-71.052-24.06-112.411-20.467c-41.363,3.593-79.433,17.638-107.198,39.546
	C55.59,285.446,41.147,313.878,43.662,342.824z M94.261,275.356c25.337-19.991,60.372-32.834,98.653-36.16
	c6.477-0.562,12.904-0.84,19.259-0.84c31.205,0,60.553,6.715,84.152,19.446c27.311,14.734,43.471,35.73,45.503,59.12
	c2.031,23.389-10.266,46.858-34.628,66.08c-25.336,19.991-60.371,32.833-98.652,36.158c-38.28,3.326-75.006-3.281-103.41-18.605
	c-27.311-14.734-43.471-35.73-45.504-59.12C57.603,318.046,69.9,294.579,94.261,275.356z"/>
<path d="M151.251,400.406c12.03,5.845,25.566,8.817,39.531,8.817c7.882,0,15.902-0.948,23.86-2.861
	c46.113-11.084,76.063-51.573,66.764-90.255c-9.298-38.681-54.38-61.134-100.493-50.047c-46.113,11.085-76.063,51.574-66.764,90.255
	C118.724,375.345,131.9,391.004,151.251,400.406z M184.661,281.649c6.778-1.629,13.517-2.404,20.057-2.404
	c29.661,0,55.175,15.96,61.101,40.609c7.232,30.086-17.407,61.901-54.923,70.92c-18.457,4.436-37.148,2.734-52.636-4.789
	c-14.958-7.267-25.087-19.134-28.52-33.417C122.506,322.482,147.145,290.668,184.661,281.649z"/>
<path d="M174.764,383.732c16.209,0,29.395-13.187,29.395-29.395c0-16.208-13.186-29.395-29.395-29.395s-29.395,13.187-29.395,29.395
	C145.369,370.545,158.555,383.732,174.764,383.732z M174.764,340.976c7.368,0,13.361,5.993,13.361,13.361
	c0,7.368-5.993,13.361-13.361,13.361c-7.368,0-13.361-5.993-13.361-13.361C161.403,346.97,167.396,340.976,174.764,340.976z"/>
<path d="M406.179,196.142c0,11.493,9.351,20.843,20.843,20.843s20.843-9.351,20.843-20.843c0-44.499-36.202-80.701-80.701-80.701
	c-11.493,0-20.843,9.351-20.843,20.843c0,11.493,9.351,20.843,20.843,20.843C388.677,157.127,406.179,174.63,406.179,196.142z
	 M362.354,136.284c0-2.652,2.158-4.81,4.81-4.81c35.657,0,64.668,29.011,64.668,64.668c0,2.652-2.158,4.81-4.81,4.81
	c-2.652,0-4.81-2.158-4.81-4.81c0-30.353-24.695-55.048-55.048-55.048C364.512,141.094,362.354,138.937,362.354,136.284z"/>
<path d="M439.826,66.064c-3.751-2.35-8.701-1.215-11.049,2.538c-2.35,3.752-1.215,8.7,2.538,11.049
	c40.483,25.363,64.652,68.91,64.652,116.491c0,9.242-0.924,18.48-2.746,27.46c-0.857,4.219-4.595,7.282-8.887,7.282
	c-0.608,0-1.223-0.062-1.824-0.184c-4.912-0.998-8.095-5.803-7.1-10.711c1.582-7.794,2.385-15.817,2.385-23.847
	c0-65.717-53.465-119.181-119.181-119.181c-2.639,0-5.316,0.088-7.95,0.261c-5.024,0.337-9.338-3.473-9.667-8.469
	c-0.328-5,3.472-9.335,8.471-9.664c3.027-0.199,6.104-0.299,9.148-0.299c16.682,0,32.991,2.97,48.472,8.831
	c4.138,1.566,8.767-0.519,10.336-4.659c1.567-4.141-0.518-8.768-4.659-10.336c-17.303-6.548-35.521-9.869-54.15-9.869
	c-3.393,0-6.824,0.112-10.199,0.335c-13.82,0.91-24.325,12.893-23.416,26.713c0.909,13.815,12.887,24.323,26.713,23.416
	c2.292-0.151,4.613-0.227,6.903-0.227c56.876,0,103.148,46.272,103.148,103.148c0,6.961-0.694,13.911-2.064,20.656
	c-2.756,13.573,6.046,26.857,19.621,29.615c10.293,2.083,21.031-2.653,26.481-11.619c1.495-2.462,2.56-5.18,3.133-8.002
	c2.034-10.028,3.067-20.34,3.067-30.65C512,143.004,485.019,94.375,439.826,66.064z"/>
<path d="M230.346,349.527c13.851,0,25.119-11.268,25.119-25.119c0-13.851-11.268-25.119-25.119-25.119
	c-13.851,0-25.119,11.268-25.119,25.119C205.227,338.259,216.495,349.527,230.346,349.527z M230.346,315.323
	c5.01,0,9.086,4.076,9.086,9.086c0,5.01-4.076,9.086-9.086,9.086s-9.086-4.076-9.086-9.086
	C221.26,319.399,225.336,315.323,230.346,315.323z"/>
<g>
</g>
<g>
</g>
<g>
</g>
<g>
</g>
<g>
</g>
<g>
</g>
<g>
</g>
<g>
</g>
<g>
</g>
<g>
</g>
<g>
</g>
<g>
</g>
<g>
</g>
<g>
</g>
<g>
</g>
</svg>
